<?xml version="1.0" standalone="no"?>
<!DOCTYPE svg PUBLIC "-//W3C//DTD SVG 20010904//EN"
 "http://www.w3.org/TR/2001/REC-SVG-20010904/DTD/svg10.dtd">
<svg version="1.0" xmlns="http://www.w3.org/2000/svg"
 width="832.000000pt" height="832.000000pt" viewBox="0 0 832.000000 832.000000"
 preserveAspectRatio="xMidYMid meet">
<metadata>
Created by potrace 1.14, written by Peter Selinger 2001-2017
</metadata>
<g transform="translate(0.000000,832.000000) scale(0.100000,-0.100000)"
fill="#000000" stroke="none">
<path d="M4120 8310 c0 -5 -4 -10 -9 -10 -5 0 -49 -23 -98 -51 -48 -28 -101
-59 -118 -69 -60 -34 -362 -209 -395 -228 -19 -12 -71 -41 -115 -67 -44 -25
-100 -57 -125 -71 -50 -29 -295 -170 -350 -201 -19 -11 -102 -60 -185 -108
-82 -48 -168 -97 -190 -109 -51 -28 -475 -273 -495 -286 -8 -5 -49 -28 -90
-52 -41 -23 -83 -47 -92 -53 -9 -5 -42 -23 -72 -40 -31 -16 -56 -33 -56 -37 0
-4 -4 -8 -10 -8 -5 0 -81 -41 -167 -91 -87 -50 -174 -100 -193 -111 -19 -11
-49 -28 -67 -38 -17 -10 -103 -60 -190 -110 -87 -50 -165 -95 -173 -100 -22
-13 -120 -70 -156 -90 -132 -75 -197 -116 -210 -134 -12 -18 -14 -307 -14
-2086 l0 -2065 23 -26 c12 -15 200 -129 417 -254 217 -125 411 -237 430 -248
19 -11 55 -31 80 -45 25 -14 62 -36 82 -49 21 -12 40 -23 43 -23 3 0 22 -11
43 -23 32 -21 241 -142 339 -198 17 -10 50 -29 72 -43 22 -15 42 -26 45 -26 2
0 66 -36 142 -81 77 -44 164 -95 194 -112 30 -16 192 -110 360 -207 168 -97
332 -192 365 -210 33 -18 62 -36 65 -39 3 -4 24 -15 47 -26 24 -11 43 -23 43
-26 0 -4 11 -10 25 -13 14 -4 25 -11 25 -16 0 -6 5 -10 11 -10 6 0 63 -31 127
-68 527 -309 612 -355 647 -349 19 3 44 14 55 25 11 10 39 28 62 41 24 12 57
30 73 40 17 10 50 29 75 43 25 14 85 48 133 77 49 28 93 51 98 51 5 0 9 3 9 8
0 4 15 13 33 21 17 8 34 17 37 20 3 4 84 51 180 106 96 55 177 103 178 107 2
4 8 8 13 8 9 0 217 118 429 243 47 27 101 59 120 70 19 10 65 37 102 58 36 22
71 39 76 39 6 0 12 4 14 8 3 7 85 56 228 135 30 17 57 34 58 39 2 4 7 8 12 8
7 0 195 104 215 119 6 5 35 22 65 38 66 36 90 50 247 142 67 39 124 71 128 71
3 0 11 5 18 10 10 9 318 188 477 278 51 29 107 61 135 79 11 7 34 20 50 29
160 87 254 148 266 173 21 41 20 4140 0 4165 -11 13 -101 67 -331 198 -39 23
-341 197 -585 338 -88 51 -176 102 -195 113 -19 10 -72 41 -118 68 -45 27 -87
49 -92 49 -6 0 -10 5 -10 10 0 6 -6 10 -14 10 -8 0 -21 6 -28 13 -7 7 -24 18
-38 24 -14 7 -47 25 -75 41 -27 16 -109 63 -181 105 -72 42 -146 85 -165 96
-19 11 -56 32 -84 47 -27 15 -61 35 -74 45 -13 11 -27 19 -31 19 -3 0 -94 51
-201 113 -107 63 -214 125 -239 139 -25 14 -85 48 -133 77 -49 28 -93 51 -98
51 -5 0 -9 5 -9 10 0 6 -5 10 -10 10 -6 0 -40 18 -76 40 -36 22 -70 40 -74 40
-4 0 -13 7 -20 15 -7 9 -15 13 -18 10 -3 -3 -12 1 -21 9 -9 7 -65 42 -126 76
-155 88 -166 94 -305 175 -202 118 -217 125 -254 125 -20 0 -36 -4 -36 -10z
m113 -246 c34 -20 80 -47 102 -59 22 -13 81 -46 130 -75 50 -29 104 -60 120
-70 17 -9 131 -75 255 -146 124 -71 227 -131 230 -134 5 -5 66 -39 125 -69 16
-9 32 -19 35 -22 4 -5 51 -32 155 -88 17 -9 32 -18 35 -21 3 -3 52 -33 110
-65 166 -95 167 -96 448 -259 101 -58 187 -106 193 -106 5 0 9 -4 9 -10 0 -5
4 -10 9 -10 9 0 97 -49 161 -89 14 -8 27 -16 30 -16 3 0 23 -12 45 -26 22 -14
65 -39 95 -56 30 -16 111 -63 180 -103 69 -40 142 -82 162 -94 21 -12 104 -59
185 -106 81 -47 153 -86 160 -88 7 -2 13 -8 13 -13 0 -5 4 -9 10 -9 5 0 33
-14 62 -32 29 -17 79 -45 111 -63 32 -18 59 -36 60 -40 2 -7 -314 -200 -363
-222 -8 -4 -48 -26 -88 -50 -40 -24 -77 -43 -81 -43 -5 0 -11 -3 -13 -7 -1 -5
-20 -17 -40 -28 -20 -11 -79 -44 -130 -74 -51 -30 -106 -62 -123 -71 -16 -10
-129 -75 -250 -145 -121 -71 -238 -138 -260 -150 -22 -12 -92 -53 -155 -90
-63 -37 -133 -78 -155 -90 -22 -13 -118 -68 -214 -124 -95 -56 -177 -101 -182
-101 -5 0 -9 -3 -9 -7 0 -5 -10 -13 -23 -19 -38 -18 -141 -76 -169 -95 -14
-11 -28 -19 -31 -19 -4 0 -116 -65 -202 -117 -11 -7 -27 -16 -35 -20 -8 -4
-41 -22 -72 -40 -31 -18 -58 -33 -60 -33 -2 0 -4 88 -3 196 l0 196 40 23 c71
40 495 285 678 391 98 57 183 104 188 104 5 0 9 5 9 10 0 6 4 10 9 10 5 0 64
32 132 72 68 39 138 79 154 88 17 9 69 40 117 69 48 28 91 51 97 51 6 0 11 4
11 9 0 5 6 11 13 13 6 2 63 32 124 68 62 36 125 72 140 80 104 59 142 83 157
98 19 22 26 79 12 110 -9 21 -107 85 -254 164 -31 17 -64 37 -73 44 -8 8 -18
14 -21 14 -3 0 -57 30 -119 66 -63 37 -130 76 -149 86 -19 11 -64 37 -100 58
-36 21 -81 47 -100 57 -19 11 -181 105 -360 208 -179 103 -379 219 -445 257
-66 37 -127 72 -135 77 -15 9 -332 193 -414 240 -22 13 -99 57 -171 98 -174
102 -173 102 -262 56 -40 -21 -73 -41 -73 -45 0 -5 -4 -8 -10 -8 -5 0 -124
-66 -262 -146 -139 -81 -272 -158 -296 -171 -23 -13 -93 -53 -154 -89 -61 -35
-112 -64 -114 -64 -3 0 -23 -12 -47 -27 -23 -15 -51 -32 -62 -38 -65 -36 -118
-67 -154 -89 -22 -14 -42 -26 -45 -26 -2 0 -34 -18 -70 -40 -36 -22 -70 -40
-76 -40 -5 0 -10 -4 -10 -8 0 -4 -12 -13 -27 -19 -16 -7 -35 -17 -43 -23 -8
-5 -82 -49 -165 -96 -170 -98 -200 -115 -270 -156 -27 -16 -58 -32 -67 -35
-10 -3 -18 -9 -18 -14 0 -5 -4 -9 -8 -9 -9 0 -341 -189 -420 -238 -41 -26 -48
-37 -57 -83 -6 -32 21 -84 53 -100 15 -7 136 -77 269 -154 134 -77 260 -149
281 -160 20 -11 55 -31 77 -44 22 -14 49 -30 60 -36 11 -6 40 -23 65 -37 25
-14 68 -38 95 -54 28 -15 52 -32 53 -36 2 -4 8 -8 12 -8 9 0 787 -448 862
-496 21 -13 42 -24 47 -24 14 0 19 -22 11 -45 -4 -11 -4 -29 0 -40 4 -11 4
-32 0 -46 -4 -15 -4 -32 0 -39 4 -7 5 -24 1 -39 -7 -27 -5 -100 3 -108 2 -3 0
-18 -4 -34 -5 -18 -5 -29 1 -29 6 0 7 -4 4 -10 -6 -9 -31 1 -75 30 -48 32
-553 320 -561 320 -5 0 -9 5 -9 10 0 6 -4 10 -9 10 -8 0 -705 400 -781 448
-14 9 -27 15 -30 15 -3 0 -16 7 -30 17 -14 10 -42 27 -62 39 -94 52 -120 67
-262 150 -311 182 -468 271 -477 271 -5 0 -9 5 -9 10 0 6 -6 10 -14 10 -7 0
-19 7 -26 15 -7 8 -16 12 -21 9 -5 -3 -9 0 -9 5 0 6 -4 11 -10 11 -5 0 -39 18
-75 40 -36 22 -68 40 -71 40 -3 0 -25 13 -49 29 -24 16 -52 32 -64 36 -26 8
-17 33 15 41 13 3 24 10 24 15 0 5 5 9 10 9 6 0 27 10 48 23 20 13 62 37 92
54 79 44 251 142 280 161 14 9 27 17 30 17 3 0 24 13 47 28 24 15 45 27 48 27
2 0 34 18 70 40 36 22 68 40 71 40 3 0 18 8 32 19 15 10 47 30 72 43 86 49
245 141 275 159 17 10 37 22 45 26 8 4 51 28 95 54 257 151 396 229 405 229 5
0 10 5 10 10 0 6 4 10 10 10 8 0 169 91 388 221 45 27 86 49 90 49 4 0 13 5
20 12 6 6 45 30 85 52 67 37 340 194 377 217 17 10 221 127 283 163 23 13 112
64 197 114 85 50 159 91 163 91 5 1 36 -15 70 -35z m-168 -851 l0 -196 -25
-11 c-14 -6 -27 -13 -30 -16 -3 -3 -48 -30 -100 -60 -52 -29 -202 -116 -334
-192 -131 -76 -242 -138 -247 -138 -5 0 -9 -4 -9 -8 0 -4 -12 -13 -27 -19 -16
-7 -55 -28 -88 -48 -33 -20 -67 -39 -75 -42 -8 -4 -17 -9 -20 -13 -8 -9 -152
-90 -161 -90 -5 0 -9 -4 -9 -9 0 -5 -8 -11 -17 -14 -10 -3 -45 -22 -78 -42
-33 -19 -72 -41 -87 -47 -16 -7 -28 -16 -28 -20 0 -4 -4 -8 -10 -8 -5 0 -33
-14 -62 -31 -29 -18 -66 -39 -83 -49 -16 -9 -88 -50 -159 -91 -71 -41 -132
-73 -135 -72 -3 1 -73 40 -154 87 -82 47 -151 86 -153 86 -3 0 -12 7 -20 15
-14 13 -14 15 0 15 9 0 16 5 16 10 0 6 3 9 8 8 4 -1 50 23 102 54 52 31 111
65 130 76 19 10 150 86 290 167 140 81 275 159 300 173 25 14 57 32 72 41 161
93 456 264 638 369 124 71 295 170 380 220 85 50 160 91 165 91 7 1 10 -67 10
-196z m265 167 c28 -16 55 -30 60 -30 6 0 10 -4 10 -10 0 -5 5 -10 10 -10 6 0
80 -40 165 -90 84 -49 169 -98 187 -108 18 -11 68 -40 111 -66 43 -25 80 -46
82 -46 2 0 33 -18 69 -40 36 -22 68 -40 72 -40 3 0 18 -8 32 -19 15 -10 47
-29 72 -43 150 -84 335 -194 338 -200 2 -5 8 -8 13 -8 8 0 715 -404 817 -467
l24 -15 -31 -16 c-18 -9 -95 -54 -171 -99 l-140 -82 -86 50 c-47 27 -90 49
-95 49 -5 0 -9 5 -9 10 0 6 -5 10 -10 10 -6 0 -27 11 -48 23 -20 13 -57 35
-82 49 -88 49 -128 72 -380 218 -140 81 -271 157 -290 168 -39 22 -506 291
-670 385 -58 33 -107 62 -109 64 -8 6 -7 393 1 393 4 0 30 -13 58 -30z m-265
-1815 c0 -674 -3 -1225 -8 -1225 -4 -1 -49 23 -100 53 -50 30 -126 74 -167 98
l-75 44 2 240 c3 312 3 292 2 1060 0 363 0 683 0 710 1 45 4 52 29 62 15 7 34
17 42 22 44 30 222 131 230 131 6 0 10 4 10 9 0 5 8 12 18 14 9 3 17 5 17 6 0
0 0 -550 0 -1224z m424 1095 l116 -67 0 -1028 c0 -565 -3 -1031 -6 -1037 -7
-12 -43 -33 -81 -49 -16 -6 -28 -15 -28 -20 0 -5 -4 -9 -9 -9 -5 0 -49 -23
-98 -51 -48 -28 -95 -55 -103 -59 -13 -7 -15 129 -15 1220 l0 1228 53 -30 c30
-16 106 -60 171 -98z m-969 -250 c-3 -33 -3 -66 1 -72 4 -7 4 -19 -1 -28 -5
-9 -5 -22 0 -30 5 -8 5 -21 0 -30 -5 -9 -5 -22 0 -30 5 -8 5 -21 0 -30 -5 -9
-5 -22 0 -29 4 -8 4 -27 0 -42 -5 -16 -5 -29 0 -29 5 0 5 -13 0 -30 -5 -17 -5
-30 0 -30 5 0 5 -13 0 -30 -5 -17 -5 -30 0 -30 5 0 5 -13 0 -30 -5 -17 -5 -30
0 -30 5 0 5 -13 0 -30 -5 -16 -6 -30 -2 -30 7 0 5 -106 -2 -126 -2 -6 0 -17 4
-24 5 -8 5 -21 0 -30 -5 -9 -5 -22 0 -30 5 -8 5 -21 0 -30 -5 -9 -5 -22 0 -30
5 -8 5 -21 0 -30 -5 -9 -5 -22 0 -29 4 -8 4 -27 0 -42 -5 -16 -6 -29 -2 -29 4
0 7 -16 7 -35 0 -19 -3 -35 -7 -35 -4 0 -3 -12 1 -27 10 -39 3 -66 -16 -59 -8
3 -164 92 -346 198 -183 105 -353 203 -378 217 -26 14 -101 57 -168 96 -133
77 -132 73 -46 120 51 28 156 88 203 116 15 9 47 27 72 41 25 14 100 57 167
97 68 39 127 71 133 71 5 0 10 3 10 8 0 4 21 18 48 32 26 14 91 51 145 82 53
32 101 58 105 58 4 0 18 9 32 20 40 32 46 26 40 -40z m1331 43 c27 -20 51 -34
112 -66 23 -12 47 -25 52 -30 8 -7 443 -258 615 -355 25 -14 74 -43 110 -64
36 -21 71 -42 79 -46 22 -12 17 -26 -15 -42 -16 -8 -53 -30 -82 -48 -29 -17
-54 -32 -57 -32 -3 0 -29 -16 -59 -35 -30 -19 -58 -35 -61 -35 -4 0 -19 -8
-33 -19 -28 -19 -131 -77 -169 -95 -13 -6 -23 -14 -23 -18 0 -5 -4 -8 -9 -8
-4 0 -58 -29 -119 -64 -61 -36 -131 -76 -154 -89 -24 -14 -83 -48 -132 -76
-49 -28 -91 -49 -95 -45 -3 3 -6 271 -6 595 -1 440 2 589 11 589 6 0 22 -8 35
-17z m-3626 -710 c143 -83 276 -160 295 -170 19 -11 177 -103 350 -203 173
-101 330 -191 348 -201 82 -47 102 -59 172 -101 41 -24 82 -47 90 -51 8 -4 33
-18 55 -32 22 -14 47 -28 55 -32 8 -4 59 -33 113 -65 54 -32 103 -58 108 -58
5 0 9 -4 9 -10 0 -5 4 -10 9 -10 5 0 108 -57 228 -127 120 -69 250 -145 290
-167 40 -22 69 -44 65 -48 -17 -16 -322 -188 -334 -188 -8 0 -18 4 -23 9 -6 5
-30 20 -55 33 -25 14 -95 54 -156 90 -61 36 -117 68 -125 71 -8 4 -21 11 -29
17 -8 5 -80 47 -160 94 -498 288 -653 376 -661 376 -5 0 -9 5 -9 10 0 6 -6 10
-14 10 -7 0 -19 7 -26 15 -6 8 -15 14 -18 13 -4 -1 -26 10 -49 25 -24 15 -47
27 -52 27 -5 0 -14 7 -21 15 -6 8 -15 14 -18 13 -4 -1 -25 9 -47 23 -22 14
-71 43 -110 64 -38 20 -77 42 -85 49 -8 6 -26 17 -40 25 -14 8 -47 27 -75 43
-27 16 -60 34 -73 40 -33 17 -91 -1 -116 -35 l-21 -28 0 -1422 c-1 -1101 2
-1429 11 -1452 12 -28 26 -41 79 -71 29 -16 125 -72 240 -139 55 -32 109 -63
120 -69 16 -9 190 -111 303 -177 28 -16 49 -28 193 -111 45 -27 86 -48 90 -48
5 0 9 -4 9 -10 0 -5 4 -10 9 -10 4 0 113 -61 242 -136 129 -75 293 -170 364
-212 72 -41 144 -83 160 -93 17 -11 36 -22 44 -26 8 -3 103 -58 210 -121 108
-63 212 -124 231 -135 19 -10 69 -39 111 -63 91 -53 126 -55 175 -9 l32 30 0
1072 c0 589 3 1076 6 1081 3 6 43 31 89 57 45 25 89 50 97 55 35 22 139 80
144 80 3 0 6 -691 6 -1535 0 -844 -2 -1535 -5 -1535 -5 0 -191 105 -260 147
-11 7 -31 18 -45 25 -14 7 -43 23 -65 37 -41 25 -553 323 -635 369 -25 14 -62
36 -82 49 -21 12 -40 23 -42 23 -3 0 -57 31 -122 70 -64 38 -118 70 -120 70
-1 0 -80 46 -176 102 -95 55 -198 115 -228 131 -30 17 -56 34 -58 39 -2 4 -8
8 -13 8 -9 0 -317 177 -727 416 -79 46 -145 84 -146 84 -2 0 -34 18 -71 41
-37 22 -83 49 -101 60 -19 10 -49 27 -67 38 -18 10 -89 51 -157 91 -69 40
-137 80 -152 87 -15 8 -30 18 -33 23 -4 6 -8 2865 -5 3772 l0 57 108 -63 c59
-34 224 -130 367 -213z m6350 -1648 l0 -1904 -198 -116 c-109 -63 -202 -115
-207 -115 -6 0 -10 -4 -10 -10 0 -5 -5 -10 -10 -10 -6 0 -43 -19 -83 -43 -39
-24 -169 -99 -287 -167 -118 -67 -227 -131 -242 -141 -15 -11 -29 -19 -32 -19
-3 0 -38 -20 -78 -43 -149 -89 -274 -162 -303 -177 -35 -19 -37 -20 -317 -183
-120 -70 -222 -127 -228 -127 -5 0 -10 -4 -10 -8 0 -5 -22 -19 -50 -32 -27
-13 -50 -27 -50 -32 0 -4 -6 -8 -12 -8 -7 -1 -38 -16 -68 -35 -30 -19 -66 -40
-80 -47 -14 -7 -65 -36 -113 -65 -48 -29 -90 -53 -93 -53 -3 0 -18 -8 -32 -19
-15 -10 -47 -30 -72 -43 -166 -94 -216 -123 -222 -133 -4 -5 -8 -6 -8 -2 0 5
-12 0 -27 -11 -35 -24 -443 -259 -463 -267 -13 -5 -15 170 -15 1535 0 847 2
1540 4 1540 2 0 25 -13 50 -28 25 -16 53 -32 61 -36 8 -4 24 -12 35 -19 12 -7
59 -34 105 -61 l85 -48 0 -1076 c0 -847 3 -1081 13 -1101 17 -37 48 -53 82
-46 25 5 295 154 370 203 14 9 27 17 30 17 3 0 48 26 100 56 112 66 276 161
340 197 25 14 77 45 117 69 39 23 74 43 78 43 3 0 22 11 43 24 39 24 191 113
278 162 28 16 144 83 258 149 114 66 223 129 244 140 20 11 39 23 40 28 2 4 8
7 12 7 5 0 116 62 247 138 131 76 261 151 290 166 75 41 83 63 82 232 0 77 0
714 0 1416 1 785 -3 1287 -9 1302 -10 28 -45 54 -81 61 -20 4 -114 -35 -129
-54 -3 -3 -30 -19 -60 -35 -30 -16 -71 -39 -90 -51 -29 -19 -196 -116 -337
-196 -29 -16 -80 -46 -128 -76 -11 -6 -69 -40 -130 -75 -60 -34 -118 -67 -128
-73 -30 -17 -317 -185 -437 -255 -63 -37 -131 -77 -150 -89 -19 -11 -42 -24
-50 -28 -8 -3 -39 -21 -68 -40 -29 -18 -54 -33 -56 -33 -3 0 -31 -16 -64 -35
-67 -41 -73 -40 -165 19 -31 20 -58 36 -61 36 -8 0 -177 102 -174 105 6 6 113
68 148 87 19 10 42 23 50 28 8 6 148 87 310 180 162 93 300 173 305 177 6 4
24 15 40 23 17 8 32 17 35 20 3 3 14 10 25 16 63 34 426 243 479 275 17 10 42
24 56 31 14 7 27 15 30 18 5 5 23 15 88 51 20 11 51 28 67 38 17 10 46 27 65
38 138 79 267 154 280 163 8 5 31 18 50 29 71 39 505 290 515 298 23 18 110
61 115 57 3 -3 5 -862 5 -1909z m-6133 893 c14 -10 28 -18 31 -18 8 0 129 -71
147 -86 13 -11 15 -103 15 -726 l0 -713 -60 -36 c-33 -20 -80 -47 -105 -61
-25 -14 -69 -39 -99 -57 -29 -17 -58 -33 -64 -34 -7 -1 -11 269 -12 893 0 492
1 901 3 908 4 12 75 -22 144 -70z m5587 -828 l0 -911 -42 23 c-23 13 -43 26
-45 31 -2 4 -7 7 -11 7 -5 0 -46 22 -92 50 -46 27 -99 57 -116 66 l-33 16 0
212 c-1 116 -1 427 0 691 0 264 0 492 0 507 0 26 5 31 120 95 19 11 64 38 100
59 95 57 104 62 112 63 3 1 7 -409 7 -909z m-5142 573 c26 -14 64 -37 83 -50
19 -12 39 -23 43 -23 5 0 21 -8 35 -19 15 -10 47 -29 72 -43 63 -35 106 -60
168 -97 29 -17 55 -31 58 -31 3 0 17 -8 32 -19 15 -10 132 -79 260 -152 127
-74 232 -137 232 -140 0 -5 -79 -54 -152 -94 -70 -39 -476 -273 -616 -356 -45
-27 -84 -49 -86 -49 -2 0 -34 -18 -70 -40 -36 -22 -70 -40 -76 -40 -5 0 -10
-4 -10 -10 0 -5 -6 -10 -13 -10 -11 0 -13 109 -13 600 0 330 1 600 3 600 1 0
24 -12 50 -27z m4601 -873 l-3 -299 -65 39 c-36 22 -78 46 -95 54 -16 8 -50
27 -75 42 -25 14 -94 55 -153 90 -60 35 -113 64 -118 64 -5 0 -9 5 -9 12 0 6
-3 8 -7 5 -3 -4 -13 -1 -22 6 -9 8 -121 73 -248 146 -128 73 -233 137 -233
141 0 6 237 148 290 174 17 8 38 21 97 59 24 15 45 27 47 27 3 0 66 36 142 80
75 44 138 80 139 80 2 0 40 23 85 50 45 28 84 50 86 50 3 0 35 18 72 40 l67
41 3 -301 c1 -165 1 -435 0 -600z m-2728 416 c8 -4 24 -12 35 -19 11 -7 53
-32 93 -55 40 -24 70 -47 67 -51 -2 -5 -19 -16 -37 -25 -18 -9 -40 -21 -48
-26 -47 -31 -454 -260 -461 -260 -5 0 -9 -4 -9 -10 0 -5 -4 -10 -10 -10 -5 0
-31 -13 -58 -29 -26 -15 -68 -39 -93 -53 -24 -14 -120 -70 -214 -123 -93 -54
-195 -112 -225 -128 -30 -17 -56 -34 -58 -39 -2 -4 -8 -8 -14 -8 -5 0 -48 -22
-95 -50 -47 -27 -86 -50 -88 -50 -2 0 -33 -18 -69 -40 -36 -22 -70 -40 -76
-40 -5 0 -10 -4 -10 -10 0 -5 -4 -10 -10 -10 -5 0 -112 -59 -237 -131 -126
-73 -246 -142 -268 -154 -161 -91 -522 -299 -539 -310 -11 -8 -25 -15 -31 -15
-7 0 -11 62 -10 191 l0 191 95 55 c52 31 163 94 245 142 83 47 152 89 153 93
2 4 7 8 11 8 7 0 122 63 220 121 19 11 134 77 255 147 122 69 224 131 228 137
4 5 8 6 8 1 0 -5 8 -2 18 6 9 8 53 35 97 58 44 24 82 46 85 49 3 3 14 11 25
17 104 57 171 95 230 131 11 7 43 24 70 39 28 14 57 32 66 40 8 8 18 14 22 14
4 0 44 22 89 49 105 62 155 91 193 111 17 8 58 32 91 53 34 20 67 37 73 37 6
0 11 3 11 8 0 4 10 12 23 17 18 9 33 4 82 -25 33 -20 67 -40 75 -44z m995 54
c17 -10 41 -25 55 -33 14 -8 92 -53 174 -100 82 -48 153 -87 158 -87 4 0 8 -4
8 -10 0 -6 3 -9 8 -8 4 1 18 -5 32 -14 55 -35 292 -168 301 -168 5 0 9 -3 9
-8 0 -4 21 -18 48 -32 26 -13 63 -34 82 -46 19 -11 55 -32 80 -46 25 -14 101
-58 170 -98 69 -40 145 -84 170 -98 25 -13 50 -28 55 -32 6 -4 30 -19 55 -32
25 -14 142 -81 260 -150 118 -68 304 -176 413 -238 l197 -115 0 -193 c0 -159
-2 -193 -14 -189 -7 3 -95 53 -196 111 -100 58 -187 106 -191 106 -5 0 -9 5
-9 10 0 6 -4 10 -10 10 -5 0 -39 18 -75 40 -36 22 -69 40 -74 40 -5 0 -14 7
-21 15 -7 8 -16 13 -20 10 -5 -3 -11 -1 -15 4 -3 6 -38 28 -78 51 -39 22 -79
45 -87 50 -84 51 -261 150 -269 150 -5 0 -11 4 -13 8 -3 7 -30 23 -158 95 -19
10 -60 34 -90 52 -44 26 -253 147 -615 355 -16 9 -91 52 -165 95 -74 43 -148
85 -163 94 -16 9 -36 21 -45 26 -9 6 -90 52 -179 103 -90 52 -163 97 -163 102
0 7 39 31 160 98 25 13 53 31 63 40 9 8 17 12 17 8 0 -4 17 5 37 19 44 29 58
30 98 5z m-527 -322 c31 -17 89 -50 127 -73 39 -22 77 -44 85 -48 8 -4 29 -16
45 -27 17 -11 37 -23 45 -27 8 -3 94 -52 190 -108 96 -56 195 -113 220 -127
25 -14 158 -90 295 -170 138 -80 270 -156 295 -170 25 -14 158 -90 295 -170
138 -80 358 -207 490 -283 132 -76 276 -159 320 -185 45 -27 101 -59 125 -73
25 -14 76 -43 113 -65 l69 -39 -212 -122 c-117 -66 -216 -121 -220 -121 -5 0
-10 -3 -12 -8 -2 -6 -155 -96 -506 -296 -30 -17 -61 -35 -70 -41 -9 -5 -91
-53 -182 -104 -91 -52 -189 -110 -217 -128 -29 -19 -53 -30 -53 -26 0 4 -4 3
-8 -2 -4 -6 -90 -58 -192 -117 -102 -58 -244 -140 -317 -182 -72 -42 -135 -76
-140 -76 -10 0 -11 375 -2 385 5 4 453 263 549 317 19 11 51 29 70 40 110 64
510 294 535 308 133 72 184 109 186 135 6 76 -5 97 -69 136 -64 39 -79 48
-119 70 -101 56 -371 213 -383 223 -26 21 -158 96 -169 96 -6 0 -11 5 -11 10
0 6 -6 10 -14 10 -7 0 -19 7 -26 15 -7 9 -15 13 -17 11 -3 -3 -28 10 -56 28
-29 18 -74 45 -102 61 -54 29 -280 160 -305 175 -8 6 -35 21 -60 35 -25 14
-70 40 -101 57 -31 18 -134 78 -230 133 -96 55 -175 103 -177 107 -2 5 -9 8
-16 8 -6 0 -29 12 -50 26 -57 39 -99 38 -167 -5 -51 -32 -101 -62 -264 -155
-76 -43 -525 -301 -565 -324 -19 -12 -62 -36 -95 -55 -113 -65 -130 -74 -181
-104 -27 -17 -70 -41 -95 -55 -24 -14 -95 -55 -157 -92 -62 -36 -117 -66 -122
-66 -4 0 -10 -3 -12 -8 -1 -4 -66 -43 -143 -87 -77 -43 -142 -82 -145 -85 -3
-3 -22 -14 -42 -24 -51 -26 -69 -48 -74 -93 -7 -54 12 -80 85 -124 34 -22 64
-39 66 -39 2 0 43 -23 92 -51 48 -28 104 -61 123 -71 19 -11 80 -46 135 -78
113 -65 168 -97 205 -117 14 -8 48 -28 75 -44 28 -16 59 -34 70 -39 11 -6 124
-70 250 -144 221 -128 230 -134 232 -165 1 -18 4 -39 7 -47 3 -8 1 -14 -4 -14
-5 0 -5 -13 0 -30 5 -17 5 -30 0 -30 -5 0 -5 -13 0 -30 5 -17 5 -30 0 -30 -5
0 -5 -13 0 -30 5 -17 5 -30 0 -30 -5 0 -5 -12 -1 -27 5 -16 5 -37 1 -48 -4
-11 -3 -26 2 -32 15 -19 -16 -17 -32 2 -7 8 -16 15 -20 15 -5 0 -107 57 -227
126 -120 69 -236 136 -258 149 -22 12 -139 80 -260 150 -536 310 -743 430
-784 453 -25 14 -67 38 -93 53 -27 16 -53 29 -58 29 -6 0 -10 5 -10 10 0 6 -4
10 -9 10 -5 0 -55 27 -111 60 -56 33 -103 60 -105 60 -3 0 -157 90 -163 95 -2
2 9 9 25 18 15 8 85 47 156 88 70 41 140 81 155 89 72 41 249 142 262 151 27
17 515 295 530 302 8 4 22 11 30 17 15 10 205 120 290 168 25 14 102 58 172
98 70 41 142 82 160 92 18 11 61 36 95 56 34 20 64 36 66 36 3 0 42 23 87 50
45 28 83 50 84 50 1 0 70 39 152 86 82 47 172 98 199 114 28 15 109 62 180
103 72 42 131 76 133 76 2 1 29 -13 60 -31z m-703 -978 c3 -5 2 -10 -3 -10 -5
0 -6 -17 -2 -40 4 -22 5 -40 1 -40 -7 0 -5 -106 3 -126 3 -8 1 -14 -4 -14 -5
0 -5 -13 0 -30 5 -17 5 -30 0 -30 -5 0 -5 -13 0 -30 5 -17 5 -30 0 -30 -5 0
-5 -13 0 -30 5 -17 5 -30 0 -30 -5 0 -5 -13 0 -30 5 -17 5 -30 0 -30 -5 0 -5
-13 0 -30 5 -17 5 -30 0 -30 -5 0 -5 -13 0 -30 5 -17 5 -30 0 -30 -5 0 -5 -13
0 -30 5 -17 5 -30 0 -30 -5 0 -5 -13 0 -30 5 -17 5 -30 0 -30 -5 0 -7 -6 -4
-14 9 -23 10 -79 3 -107 -4 -15 -3 -32 1 -39 4 -7 4 -25 0 -40 -4 -15 -4 -33
0 -40 4 -7 4 -25 0 -40 -4 -15 -4 -33 0 -40 4 -7 4 -25 0 -40 -4 -15 -4 -34 1
-43 6 -9 6 -18 0 -21 -5 -3 -7 -16 -4 -27 5 -19 3 -20 -18 -14 -13 4 -35 15
-49 25 -14 9 -61 37 -105 62 -124 71 -139 80 -309 177 -87 50 -162 91 -167 91
-5 0 -9 5 -9 10 0 6 -4 10 -9 10 -9 0 -349 194 -362 207 -7 7 193 127 410 248
20 11 38 23 39 28 2 4 8 7 13 7 8 0 141 75 227 128 20 12 46 27 57 32 11 5 76
43 145 84 136 81 136 81 145 66z m1616 -176 c167 -97 395 -228 506 -292 112
-65 203 -120 203 -123 0 -3 -17 -14 -37 -26 -63 -33 -117 -65 -128 -73 -5 -4
-35 -21 -65 -38 -30 -17 -106 -60 -169 -96 -62 -36 -117 -66 -122 -66 -5 0 -9
-4 -9 -10 0 -5 -4 -10 -9 -10 -5 0 -49 -23 -98 -51 -108 -63 -142 -83 -190
-110 -21 -12 -72 -41 -113 -64 -41 -24 -82 -45 -90 -47 -13 -3 -14 74 -15 594
0 550 1 598 16 593 9 -3 153 -85 320 -181z"/>
</g>
</svg>
